<?xml version="1.0" encoding="UTF-8" standalone="no"?>
<svg
   xmlns:dc="http://purl.org/dc/elements/1.1/"
   xmlns:cc="http://creativecommons.org/ns#"
   xmlns:rdf="http://www.w3.org/1999/02/22-rdf-syntax-ns#"
   xmlns:svg="http://www.w3.org/2000/svg"
   xmlns="http://www.w3.org/2000/svg"
   xmlns:sodipodi="http://sodipodi.sourceforge.net/DTD/sodipodi-0.dtd"
   xmlns:inkscape="http://www.inkscape.org/namespaces/inkscape"
   width="33.043568"
   height="15.407428"
   overflow="hidden"
   version="1.1"
   id="svg3737"
   sodipodi:docname="cloud_icon.svg"
   style="overflow:hidden"
   inkscape:version="0.92.3 (2405546, 2018-03-11)">
  <metadata
     id="metadata3741">
    <rdf:RDF>
      <cc:Work
         rdf:about="">
        <dc:format>image/svg+xml</dc:format>
        <dc:type
           rdf:resource="http://purl.org/dc/dcmitype/StillImage" />
      </cc:Work>
    </rdf:RDF>
  </metadata>
  <sodipodi:namedview
     pagecolor="#ffffff"
     bordercolor="#666666"
     borderopacity="1"
     objecttolerance="10"
     gridtolerance="10"
     guidetolerance="10"
     inkscape:pageopacity="0"
     inkscape:pageshadow="2"
     inkscape:window-width="1920"
     inkscape:window-height="1017"
     id="namedview3739"
     showgrid="false"
     inkscape:zoom="2.6422156"
     inkscape:cx="-47.543102"
     inkscape:cy="37.269133"
     inkscape:window-x="-8"
     inkscape:window-y="1"
     inkscape:window-maximized="1"
     inkscape:current-layer="svg3737" />
  <defs
     id="defs3731">
    <clipPath
       id="clip0">
      <path
         d="m 303,166 h 167 v 79 H 303 Z"
         id="path3728"
         inkscape:connector-curvature="0"
         style="clip-rule:evenodd;fill-rule:evenodd" />
    </clipPath>
  </defs>
  <g
     clip-path="url(#clip0)"
     transform="matrix(0.2,0,0,0.2,-60.772185,-33.449732)"
     id="g3735"
     inkscape:export-xdpi="96"
     inkscape:export-ydpi="96">
    <path
       d="m 318.896,192.613 c -1.92,-8.964 7.966,-17.219 22.081,-18.438 5.719,-0.495 11.534,0.244 16.515,2.097 5.277,-6.317 17.609,-8.718 27.544,-5.363 1.737,0.587 3.332,1.331 4.733,2.208 4.111,-5.236 14.122,-7.364 22.361,-4.752 2.281,0.723 4.27,1.769 5.815,3.057 6.625,-4.952 18.331,-5.564 26.147,-1.366 3.284,1.764 5.498,4.197 6.262,6.883 10.854,1.881 17.257,9.006 14.302,15.914 -0.249,0.58 -0.56,1.149 -0.933,1.703 8.705,7.198 6.574,17.514 -4.76,23.043 -3.528,1.721 -7.695,2.835 -12.099,3.235 -0.098,7.744 -10.07,13.972 -22.272,13.909 -4.077,-0.02 -8.065,-0.757 -11.524,-2.127 -4.127,8.682 -18.524,13.589 -32.155,10.961 -5.713,-1.102 -10.649,-3.432 -13.967,-6.592 -13.957,5.347 -32.073,2.471 -40.463,-6.425 -0.105,-0.112 -0.209,-0.224 -0.311,-0.338 -9.135,0.679 -17.409,-3.461 -18.481,-9.247 -0.571,-3.084 1.032,-6.171 4.382,-8.438 -7.909,-2.957 -10.566,-9.448 -5.935,-14.498 2.673,-2.914 7.359,-4.84 12.619,-5.186 z"
       id="path3733"
       inkscape:connector-curvature="0"
       style="fill:#d9d9d9;fill-rule:evenodd" />
  </g>
</svg>
