<svg width="167" height="79" xmlns="http://www.w3.org/2000/svg" xmlns:xlink="http://www.w3.org/1999/xlink" overflow="hidden"><defs><clipPath id="clip0"><path d="M303 166 470 166 470 245 303 245Z" fill-rule="evenodd" clip-rule="evenodd"/></clipPath></defs><g clip-path="url(#clip0)" transform="translate(-303 -166)"><path d="M318.896 192.613C316.976 183.649 326.862 175.394 340.977 174.175 346.696 173.68 352.511 174.419 357.492 176.272 362.769 169.955 375.101 167.554 385.036 170.909 386.773 171.496 388.368 172.24 389.769 173.117 393.88 167.881 403.891 165.753 412.13 168.365 414.411 169.088 416.4 170.134 417.945 171.422 424.57 166.47 436.276 165.858 444.092 170.056 447.376 171.82 449.59 174.253 450.354 176.939 461.208 178.82 467.611 185.945 464.656 192.853 464.407 193.433 464.096 194.002 463.723 194.556 472.428 201.754 470.297 212.07 458.963 217.599 455.435 219.32 451.268 220.434 446.864 220.834 446.766 228.578 436.794 234.806 424.592 234.743 420.515 234.723 416.527 233.986 413.068 232.616 408.941 241.298 394.544 246.205 380.913 243.577 375.2 242.475 370.264 240.145 366.946 236.985 352.989 242.332 334.873 239.456 326.483 230.56 326.378 230.448 326.274 230.336 326.172 230.222 317.037 230.901 308.763 226.761 307.691 220.975 307.12 217.891 308.723 214.804 312.073 212.537 304.164 209.58 301.507 203.089 306.138 198.039 308.811 195.125 313.497 193.199 318.757 192.853Z" fill="#D9D9D9" fill-rule="evenodd"/></g></svg>